# xmcd
#
# Track frame offsets: 
#        150
#        21202
#        43600
#        59460
#        76180
#        95165
#        109825
#        127220
#        136262
#        154407
#        170885
#
# Disc length: 2513 seconds
#
# Revision: 2
# Processed by: cddbd v1.4PL0 Copyright (c) Steve Scherf et al.
# Submitted via: ExactAudioCopy v0.90b4
#
DISCID=9d09cf0b
DTITLE=Marshall Chapman - Love Slave
DYEAR=1900
DGENRE=Rock
TTITLE0=Leaving Loachapoka
TTITLE1=Guns R Us
TTITLE2=In The Fullness Of Time
TTITLE3=I'm A Dreamer
TTITLE4=Love Slave
TTITLE5=Don't Mind Me
TTITLE6=Better To Let Her Go
TTITLE7=If I Can't Have You
TTITLE8=A Mystery To Me
TTITLE9=Just To Torture Myself
TTITLE10=Somebody Like You
EXTD=
EXTT0=
EXTT1=
EXTT2=
EXTT3=
EXTT4=
EXTT5=
EXTT6=
EXTT7=
EXTT8=
EXTT9=
EXTT10=
PLAYORDER=
